<?xml version="1.0" encoding="utf-8"?>
<!-- Generator: Adobe Illustrator 27.0.0, SVG Export Plug-In . SVG Version: 6.00 Build 0)  -->
<svg version="1.1" id="Livello_1" xmlns="http://www.w3.org/2000/svg" xmlns:xlink="http://www.w3.org/1999/xlink" x="0px" y="0px"
	 viewBox="0 0 400 400" style="enable-background:new 0 0 400 400;" xml:space="preserve">
<style type="text/css">
	.st0{fill:#673AB7;}
</style>
<g>
	<path class="st0" d="M200.1,23L46.8,111.5v177L200,377l153.2-88.5v-177L200.1,23z M335.7,278.3l-135.6,78.3L64.4,278.3V121.7
		l135.7-78.3l135.6,78.3V278.3z"/>
	<path class="st0" d="M318.5,266c0,1.8-0.6,2.6-2.1,3.5c-4.6,2.5-9.2,5.2-13.6,7.9c-1.5,0.9-2.3,1-3.2-0.8
		c-6.8-11.9-13.7-23.8-20.5-35.6c-5-8.7-10-17.3-15.3-26.4c-1.7,5.9-3.3,11.3-4.9,16.7c-2.5,8.2-5,16.3-7.3,24.5
		c-2.5,8.7-5.1,17.5-7.4,26.3c-0.5,2-1.1,3.9-1.7,5.9c-2.7,9.4-5.3,18.7-8,28.1c-0.2,0.8-0.6,1.2-1.3,1.6
		c-7.7,4.4-15.4,8.9-23.1,13.4c-0.3,0.2-0.7,0.4-0.9,0.1c-0.4-0.6-0.2-1.2,0.2-1.7c-0.1-17.2-0.3-34.5-0.3-51.7
		c-0.2-60.5-0.2-121,0.1-181.5c0.1-8.7,0.1-17.4,0.1-26.1c-0.4-0.5-0.5-1.2-0.1-1.7c0.3-0.4,0.8,0,1.2,0.2c6.2,3.8,12.8,6.9,18.8,11
		c0.9,0.9,0.5,2,0.5,3.1c0.1,56.5,0.1,112.9,0.1,169.4c0,0.3,0.1,0.7,0.4,1.1c8.8-30.6,17.7-61.3,26.7-92.6
		c13.8,24,27.4,47.5,41.3,71.6v-113c2.5,1.4,4.5,2.6,6.6,3.8c4.2,2.4,8.4,4.9,12.6,7.2c1.2,0.6,1.6,1.4,1.6,2.7
		C318.4,177.3,318.4,221.7,318.5,266z"/>
	<path class="st0" d="M191.1,242.8c0,29.5,0,59.1,0,89.1c-4.7-2.6-9.2-5-13.6-7.5c-11.2-6.5-22.3-13-33.5-19.5
		c-20.4-11.8-40.8-23.6-61.4-35.3c-2.5-1.4-1.5-3.2-1.5-5.1c-0.1-11.6-0.1-23.3-0.2-35c0-1.6,0.3-2.2,2-2.1c5.5,0.1,10.9,0.1,16.4,0
		c1.8-0.1,2.2,0.5,2.2,2.3c-0.1,8.2-0.1,16.5-0.1,24.7c0,0.8,0.1,1.6,0.2,2.4c9.2,5.3,18.5,10.5,27.7,15.8
		c10.3,6,20.9,11.9,31.1,18.1c2.9,1.8,5.9,3.7,9.2,5c0.7-0.4,0.4-1,0.4-1.5c0-27.4-0.1-54.7-0.1-82.1c0-0.6-0.1-1.2-0.2-1.8
		c-29,0-58,0-86.9,0.1c-1.5,0-1.9-0.3-1.9-1.9c0.1-22.5,0.1-45,0.2-67.6c-0.1-2.7-0.1-5.6-0.2-8.4c-0.1-1.1,0.6-1.5,1.5-2
		c16.4-9.5,32.9-18.9,49.3-28.4c16.6-9.6,33.1-19.2,49.7-28.7c3-1.7,6.1-3.4,9.5-5.3c0,10.9,0,21.4,0,31.9c0.1,23.5,0.1,47,0.1,70.6
		c0,0.6,0.3,1.2-0.4,1.7c-6.4,0.1-12.8,0.1-19.3,0.2c-1.4,0-1.5-0.6-1.2-1.6c0-21.1,0-42.1,0-63.2V104c-3.2,1.8-6.3,3.3-9.2,5
		c-11.3,6.6-22.6,13.2-33.9,19.8c-7.7,4.5-15.3,8.9-23,13.3c-1.8,1-2.3,2-2.2,4c0.1,2.7-0.1,5.6-0.1,8.3c0.1,10.8,0.1,21.7,0.1,32.5
		c0,2.2,0.4,2.8,2.7,2.8c28-0.1,56-0.1,84-0.1c0.9,0,1.9-0.6,2.6,0.5C191.1,207.7,191.1,225.2,191.1,242.8z"/>
</g>
</svg>
